<svg width="319" height="201" viewBox="0 0 319 201" fill="none" xmlns="http://www.w3.org/2000/svg">
<ellipse cx="0.994839" cy="1" rx="0.994839" ry="1" fill="#F0F0F1"/>
<ellipse cx="95.5046" cy="1" rx="0.994839" ry="1" fill="#F0F0F1"/>
<ellipse cx="114.406" cy="1" rx="0.994843" ry="1" fill="#F0F0F1"/>
<ellipse cx="38.7988" cy="1" rx="0.994839" ry="1" fill="#F0F0F1"/>
<ellipse cx="57.7006" cy="1" rx="0.994839" ry="1" fill="#F0F0F1"/>
<ellipse cx="76.6028" cy="1" rx="0.994843" ry="1" fill="#F0F0F1"/>
<ellipse cx="152.21" cy="1" rx="0.994843" ry="1" fill="#F0F0F1"/>
<ellipse cx="227.818" cy="1" rx="0.994835" ry="1" fill="#F0F0F1"/>
<ellipse cx="19.8967" cy="1" rx="0.994839" ry="1" fill="#F0F0F1"/>
<ellipse cx="171.112" cy="1" rx="0.994835" ry="1" fill="#F0F0F1"/>
<ellipse cx="190.014" cy="1" rx="0.994835" ry="1" fill="#F0F0F1"/>
<ellipse cx="133.308" cy="1" rx="0.994843" ry="1" fill="#F0F0F1"/>
<ellipse cx="208.916" cy="1" rx="0.994835" ry="1" fill="#F0F0F1"/>
<ellipse cx="246.72" cy="1" rx="0.994843" ry="1" fill="#F0F0F1"/>
<ellipse cx="265.622" cy="1" rx="0.994843" ry="1" fill="#F0F0F1"/>
<ellipse cx="284.524" cy="1" rx="0.994828" ry="1" fill="#F0F0F1"/>
<ellipse cx="0.994839" cy="19" rx="0.994839" ry="1" fill="#F0F0F1"/>
<ellipse cx="95.5046" cy="19" rx="0.994839" ry="1" fill="#F0F0F1"/>
<ellipse cx="114.406" cy="19" rx="0.994843" ry="1" fill="#F0F0F1"/>
<ellipse cx="38.7988" cy="19" rx="0.994839" ry="1" fill="#F0F0F1"/>
<ellipse cx="57.7006" cy="19" rx="0.994839" ry="1" fill="#F0F0F1"/>
<ellipse cx="76.6028" cy="19" rx="0.994843" ry="1" fill="#F0F0F1"/>
<ellipse cx="152.21" cy="19" rx="0.994843" ry="1" fill="#F0F0F1"/>
<ellipse cx="227.818" cy="19" rx="0.994835" ry="1" fill="#F0F0F1"/>
<ellipse cx="19.8967" cy="19" rx="0.994839" ry="1" fill="#F0F0F1"/>
<ellipse cx="171.112" cy="19" rx="0.994835" ry="1" fill="#F0F0F1"/>
<ellipse cx="190.014" cy="19" rx="0.994835" ry="1" fill="#F0F0F1"/>
<ellipse cx="133.308" cy="19" rx="0.994843" ry="1" fill="#F0F0F1"/>
<ellipse cx="208.916" cy="19" rx="0.994835" ry="1" fill="#F0F0F1"/>
<ellipse cx="246.72" cy="19" rx="0.994843" ry="1" fill="#F0F0F1"/>
<ellipse cx="265.622" cy="19" rx="0.994843" ry="1" fill="#F0F0F1"/>
<ellipse cx="284.524" cy="19" rx="0.994828" ry="1" fill="#F0F0F1"/>
<ellipse cx="0.994839" cy="37" rx="0.994839" ry="1" fill="#F0F0F1"/>
<ellipse cx="95.5046" cy="37" rx="0.994839" ry="1" fill="#F0F0F1"/>
<ellipse cx="114.406" cy="37" rx="0.994843" ry="1" fill="#F0F0F1"/>
<ellipse cx="38.7988" cy="37" rx="0.994839" ry="1" fill="#F0F0F1"/>
<ellipse cx="57.7006" cy="37" rx="0.994839" ry="1" fill="#F0F0F1"/>
<ellipse cx="76.6028" cy="37" rx="0.994843" ry="1" fill="#F0F0F1"/>
<ellipse cx="152.21" cy="37" rx="0.994843" ry="1" fill="#F0F0F1"/>
<ellipse cx="227.818" cy="37" rx="0.994835" ry="1" fill="#F0F0F1"/>
<ellipse cx="19.8967" cy="37" rx="0.994839" ry="1" fill="#F0F0F1"/>
<ellipse cx="171.112" cy="37" rx="0.994835" ry="1" fill="#F0F0F1"/>
<ellipse cx="190.014" cy="37" rx="0.994835" ry="1" fill="#F0F0F1"/>
<ellipse cx="133.308" cy="37" rx="0.994843" ry="1" fill="#F0F0F1"/>
<ellipse cx="208.916" cy="37" rx="0.994835" ry="1" fill="#F0F0F1"/>
<ellipse cx="246.72" cy="37" rx="0.994843" ry="1" fill="#F0F0F1"/>
<ellipse cx="265.622" cy="37" rx="0.994843" ry="1" fill="#F0F0F1"/>
<ellipse cx="284.524" cy="37" rx="0.994828" ry="1" fill="#F0F0F1"/>
<ellipse cx="0.994839" cy="55" rx="0.994839" ry="1" fill="#F0F0F1"/>
<ellipse cx="95.5046" cy="55" rx="0.994839" ry="1" fill="#F0F0F1"/>
<ellipse cx="114.406" cy="55" rx="0.994843" ry="1" fill="#F0F0F1"/>
<ellipse cx="38.7988" cy="55" rx="0.994839" ry="1" fill="#F0F0F1"/>
<ellipse cx="57.7006" cy="55" rx="0.994839" ry="1" fill="#F0F0F1"/>
<ellipse cx="76.6028" cy="55" rx="0.994843" ry="1" fill="#F0F0F1"/>
<ellipse cx="152.21" cy="55" rx="0.994843" ry="1" fill="#F0F0F1"/>
<ellipse cx="227.818" cy="55" rx="0.994835" ry="1" fill="#F0F0F1"/>
<ellipse cx="19.8967" cy="55" rx="0.994839" ry="1" fill="#F0F0F1"/>
<ellipse cx="171.112" cy="55" rx="0.994835" ry="1" fill="#F0F0F1"/>
<ellipse cx="190.014" cy="55" rx="0.994835" ry="1" fill="#F0F0F1"/>
<ellipse cx="133.308" cy="55" rx="0.994843" ry="1" fill="#F0F0F1"/>
<ellipse cx="208.916" cy="55" rx="0.994835" ry="1" fill="#F0F0F1"/>
<ellipse cx="246.72" cy="55" rx="0.994843" ry="1" fill="#F0F0F1"/>
<ellipse cx="265.622" cy="55" rx="0.994843" ry="1" fill="#F0F0F1"/>
<ellipse cx="284.524" cy="55" rx="0.994828" ry="1" fill="#F0F0F1"/>
<ellipse cx="0.994839" cy="72.9988" rx="0.994839" ry="1" fill="#F0F0F1"/>
<ellipse cx="95.5046" cy="72.9988" rx="0.994839" ry="1" fill="#F0F0F1"/>
<ellipse cx="114.406" cy="72.9988" rx="0.994843" ry="1" fill="#F0F0F1"/>
<ellipse cx="38.7988" cy="72.9988" rx="0.994839" ry="1" fill="#F0F0F1"/>
<ellipse cx="57.7006" cy="72.9988" rx="0.994839" ry="1" fill="#F0F0F1"/>
<ellipse cx="76.6028" cy="72.9988" rx="0.994843" ry="1" fill="#F0F0F1"/>
<ellipse cx="152.21" cy="72.9988" rx="0.994843" ry="1" fill="#F0F0F1"/>
<ellipse cx="227.818" cy="72.9988" rx="0.994835" ry="1" fill="#F0F0F1"/>
<ellipse cx="19.8967" cy="72.9988" rx="0.994839" ry="1" fill="#F0F0F1"/>
<ellipse cx="171.112" cy="72.9988" rx="0.994835" ry="1" fill="#F0F0F1"/>
<ellipse cx="190.014" cy="72.9988" rx="0.994835" ry="1" fill="#F0F0F1"/>
<ellipse cx="133.308" cy="72.9988" rx="0.994843" ry="1" fill="#F0F0F1"/>
<ellipse cx="208.916" cy="72.9988" rx="0.994835" ry="1" fill="#F0F0F1"/>
<ellipse cx="246.72" cy="72.9988" rx="0.994843" ry="1" fill="#F0F0F1"/>
<ellipse cx="265.622" cy="72.9988" rx="0.994843" ry="1" fill="#F0F0F1"/>
<ellipse cx="284.524" cy="72.9988" rx="0.994828" ry="1" fill="#F0F0F1"/>
<ellipse cx="0.994839" cy="90.9985" rx="0.994839" ry="1" fill="#F0F0F1"/>
<ellipse cx="95.5046" cy="90.9985" rx="0.994839" ry="1" fill="#F0F0F1"/>
<ellipse cx="114.406" cy="90.9985" rx="0.994843" ry="1" fill="#F0F0F1"/>
<ellipse cx="38.7988" cy="90.9985" rx="0.994839" ry="1" fill="#F0F0F1"/>
<ellipse cx="57.7006" cy="90.9985" rx="0.994839" ry="1" fill="#F0F0F1"/>
<ellipse cx="76.6028" cy="90.9985" rx="0.994843" ry="1" fill="#F0F0F1"/>
<ellipse cx="152.21" cy="90.9985" rx="0.994843" ry="1" fill="#F0F0F1"/>
<ellipse cx="227.818" cy="90.9985" rx="0.994835" ry="1" fill="#F0F0F1"/>
<ellipse cx="19.8967" cy="90.9985" rx="0.994839" ry="1" fill="#F0F0F1"/>
<ellipse cx="171.112" cy="90.9985" rx="0.994835" ry="1" fill="#F0F0F1"/>
<ellipse cx="190.014" cy="90.9985" rx="0.994835" ry="1" fill="#F0F0F1"/>
<ellipse cx="133.308" cy="90.9985" rx="0.994843" ry="1" fill="#F0F0F1"/>
<ellipse cx="208.916" cy="90.9985" rx="0.994835" ry="1" fill="#F0F0F1"/>
<ellipse cx="246.72" cy="90.9985" rx="0.994843" ry="1" fill="#F0F0F1"/>
<ellipse cx="265.622" cy="90.9985" rx="0.994843" ry="1" fill="#F0F0F1"/>
<ellipse cx="284.524" cy="90.9985" rx="0.994828" ry="1" fill="#F0F0F1"/>
<ellipse cx="0.994839" cy="108.998" rx="0.994839" ry="1" fill="#F0F0F1"/>
<ellipse cx="95.5046" cy="108.998" rx="0.994839" ry="1" fill="#F0F0F1"/>
<ellipse cx="114.406" cy="108.998" rx="0.994843" ry="1" fill="#F0F0F1"/>
<ellipse cx="38.7988" cy="108.998" rx="0.994839" ry="1" fill="#F0F0F1"/>
<ellipse cx="57.7006" cy="108.998" rx="0.994839" ry="1" fill="#F0F0F1"/>
<ellipse cx="76.6028" cy="108.998" rx="0.994843" ry="1" fill="#F0F0F1"/>
<ellipse cx="152.21" cy="108.998" rx="0.994843" ry="1" fill="#F0F0F1"/>
<ellipse cx="227.818" cy="108.998" rx="0.994835" ry="1" fill="#F0F0F1"/>
<ellipse cx="19.8967" cy="108.998" rx="0.994839" ry="1" fill="#F0F0F1"/>
<ellipse cx="171.112" cy="108.998" rx="0.994835" ry="1" fill="#F0F0F1"/>
<ellipse cx="190.014" cy="108.998" rx="0.994835" ry="1" fill="#F0F0F1"/>
<ellipse cx="133.308" cy="108.998" rx="0.994843" ry="1" fill="#F0F0F1"/>
<ellipse cx="208.916" cy="108.998" rx="0.994835" ry="1" fill="#F0F0F1"/>
<ellipse cx="246.72" cy="108.998" rx="0.994843" ry="1" fill="#F0F0F1"/>
<ellipse cx="265.622" cy="108.998" rx="0.994843" ry="1" fill="#F0F0F1"/>
<ellipse cx="284.524" cy="108.998" rx="0.994828" ry="1" fill="#F0F0F1"/>
<ellipse cx="0.994839" cy="126.998" rx="0.994839" ry="1" fill="#F0F0F1"/>
<ellipse cx="95.5046" cy="126.998" rx="0.994839" ry="1" fill="#F0F0F1"/>
<ellipse cx="114.406" cy="126.998" rx="0.994843" ry="1" fill="#F0F0F1"/>
<ellipse cx="38.7988" cy="126.998" rx="0.994839" ry="1" fill="#F0F0F1"/>
<ellipse cx="57.7006" cy="126.998" rx="0.994839" ry="1" fill="#F0F0F1"/>
<ellipse cx="76.6028" cy="126.998" rx="0.994843" ry="1" fill="#F0F0F1"/>
<ellipse cx="152.21" cy="126.998" rx="0.994843" ry="1" fill="#F0F0F1"/>
<ellipse cx="227.818" cy="126.998" rx="0.994835" ry="1" fill="#F0F0F1"/>
<ellipse cx="19.8967" cy="126.998" rx="0.994839" ry="1" fill="#F0F0F1"/>
<ellipse cx="171.112" cy="126.998" rx="0.994835" ry="1" fill="#F0F0F1"/>
<ellipse cx="190.014" cy="126.998" rx="0.994835" ry="1" fill="#F0F0F1"/>
<ellipse cx="133.308" cy="126.998" rx="0.994843" ry="1" fill="#F0F0F1"/>
<ellipse cx="208.916" cy="126.998" rx="0.994835" ry="1" fill="#F0F0F1"/>
<ellipse cx="246.72" cy="126.998" rx="0.994843" ry="1" fill="#F0F0F1"/>
<ellipse cx="265.622" cy="126.998" rx="0.994843" ry="1" fill="#F0F0F1"/>
<ellipse cx="284.524" cy="126.998" rx="0.994828" ry="1" fill="#F0F0F1"/>
<ellipse cx="0.994839" cy="144.998" rx="0.994839" ry="1" fill="#F0F0F1"/>
<ellipse cx="95.5046" cy="144.998" rx="0.994839" ry="1" fill="#F0F0F1"/>
<ellipse cx="114.406" cy="144.998" rx="0.994843" ry="1" fill="#F0F0F1"/>
<ellipse cx="38.7988" cy="144.998" rx="0.994839" ry="1" fill="#F0F0F1"/>
<ellipse cx="57.7006" cy="144.998" rx="0.994839" ry="1" fill="#F0F0F1"/>
<ellipse cx="76.6028" cy="144.998" rx="0.994843" ry="1" fill="#F0F0F1"/>
<ellipse cx="152.21" cy="144.998" rx="0.994843" ry="1" fill="#F0F0F1"/>
<ellipse cx="227.818" cy="144.998" rx="0.994835" ry="1" fill="#F0F0F1"/>
<ellipse cx="19.8967" cy="144.998" rx="0.994839" ry="1" fill="#F0F0F1"/>
<ellipse cx="171.112" cy="144.998" rx="0.994835" ry="1" fill="#F0F0F1"/>
<ellipse cx="190.014" cy="144.998" rx="0.994835" ry="1" fill="#F0F0F1"/>
<ellipse cx="133.308" cy="144.998" rx="0.994843" ry="1" fill="#F0F0F1"/>
<ellipse cx="208.916" cy="144.998" rx="0.994835" ry="1" fill="#F0F0F1"/>
<ellipse cx="246.72" cy="144.998" rx="0.994843" ry="1" fill="#F0F0F1"/>
<ellipse cx="265.622" cy="144.998" rx="0.994843" ry="1" fill="#F0F0F1"/>
<ellipse cx="284.524" cy="144.998" rx="0.994828" ry="1" fill="#F0F0F1"/>
<ellipse cx="0.994839" cy="162.997" rx="0.994839" ry="1" fill="#F0F0F1"/>
<ellipse cx="95.5046" cy="162.997" rx="0.994839" ry="1" fill="#F0F0F1"/>
<ellipse cx="114.406" cy="162.997" rx="0.994843" ry="1" fill="#F0F0F1"/>
<ellipse cx="38.7988" cy="162.997" rx="0.994839" ry="1" fill="#F0F0F1"/>
<ellipse cx="57.7006" cy="162.997" rx="0.994839" ry="1" fill="#F0F0F1"/>
<ellipse cx="76.6028" cy="162.997" rx="0.994843" ry="1" fill="#F0F0F1"/>
<ellipse cx="152.21" cy="162.997" rx="0.994843" ry="1" fill="#F0F0F1"/>
<ellipse cx="227.818" cy="162.997" rx="0.994835" ry="1" fill="#F0F0F1"/>
<ellipse cx="19.8967" cy="162.997" rx="0.994839" ry="1" fill="#F0F0F1"/>
<ellipse cx="171.112" cy="162.997" rx="0.994835" ry="1" fill="#F0F0F1"/>
<ellipse cx="190.014" cy="162.997" rx="0.994835" ry="1" fill="#F0F0F1"/>
<ellipse cx="133.308" cy="162.997" rx="0.994843" ry="1" fill="#F0F0F1"/>
<ellipse cx="208.916" cy="162.997" rx="0.994835" ry="1" fill="#F0F0F1"/>
<ellipse cx="246.72" cy="162.997" rx="0.994843" ry="1" fill="#F0F0F1"/>
<ellipse cx="265.622" cy="162.997" rx="0.994843" ry="1" fill="#F0F0F1"/>
<ellipse cx="284.524" cy="162.997" rx="0.994828" ry="1" fill="#F0F0F1"/>
<ellipse cx="0.994839" cy="180.997" rx="0.994839" ry="1" fill="#F0F0F1"/>
<ellipse cx="95.5046" cy="180.997" rx="0.994839" ry="1" fill="#F0F0F1"/>
<ellipse cx="114.406" cy="180.997" rx="0.994843" ry="1" fill="#F0F0F1"/>
<ellipse cx="38.7988" cy="180.997" rx="0.994839" ry="1" fill="#F0F0F1"/>
<ellipse cx="57.7006" cy="180.997" rx="0.994839" ry="1" fill="#F0F0F1"/>
<ellipse cx="76.6028" cy="180.997" rx="0.994843" ry="1" fill="#F0F0F1"/>
<ellipse cx="152.21" cy="180.997" rx="0.994843" ry="1" fill="#F0F0F1"/>
<ellipse cx="227.818" cy="180.997" rx="0.994835" ry="1" fill="#F0F0F1"/>
<ellipse cx="19.8967" cy="180.997" rx="0.994839" ry="1" fill="#F0F0F1"/>
<ellipse cx="171.112" cy="180.997" rx="0.994835" ry="1" fill="#F0F0F1"/>
<ellipse cx="190.014" cy="180.997" rx="0.994835" ry="1" fill="#F0F0F1"/>
<ellipse cx="133.308" cy="180.997" rx="0.994843" ry="1" fill="#F0F0F1"/>
<ellipse cx="208.916" cy="180.997" rx="0.994835" ry="1" fill="#F0F0F1"/>
<ellipse cx="246.72" cy="180.997" rx="0.994843" ry="1" fill="#F0F0F1"/>
<ellipse cx="265.622" cy="180.997" rx="0.994843" ry="1" fill="#F0F0F1"/>
<ellipse cx="284.524" cy="180.997" rx="0.994828" ry="1" fill="#F0F0F1"/>
<ellipse cx="0.994839" cy="198.997" rx="0.994839" ry="1" fill="#F0F0F1"/>
<ellipse cx="95.5046" cy="198.997" rx="0.994839" ry="1" fill="#F0F0F1"/>
<ellipse cx="114.406" cy="198.997" rx="0.994843" ry="1" fill="#F0F0F1"/>
<ellipse cx="38.7988" cy="198.997" rx="0.994839" ry="1" fill="#F0F0F1"/>
<ellipse cx="57.7006" cy="198.997" rx="0.994839" ry="1" fill="#F0F0F1"/>
<ellipse cx="76.6028" cy="198.997" rx="0.994843" ry="1" fill="#F0F0F1"/>
<ellipse cx="152.21" cy="198.997" rx="0.994843" ry="1" fill="#F0F0F1"/>
<ellipse cx="227.818" cy="198.997" rx="0.994835" ry="1" fill="#F0F0F1"/>
<ellipse cx="19.8967" cy="198.997" rx="0.994839" ry="1" fill="#F0F0F1"/>
<ellipse cx="171.112" cy="198.997" rx="0.994835" ry="1" fill="#F0F0F1"/>
<ellipse cx="190.014" cy="198.997" rx="0.994835" ry="1" fill="#F0F0F1"/>
<ellipse cx="133.308" cy="198.997" rx="0.994843" ry="1" fill="#F0F0F1"/>
<ellipse cx="208.916" cy="198.997" rx="0.994835" ry="1" fill="#F0F0F1"/>
<ellipse cx="246.72" cy="198.997" rx="0.994843" ry="1" fill="#F0F0F1"/>
<ellipse cx="265.622" cy="198.997" rx="0.994843" ry="1" fill="#F0F0F1"/>
<ellipse cx="284.524" cy="198.997" rx="0.994828" ry="1" fill="#F0F0F1"/>
<ellipse cx="299.201" cy="1.00252" rx="0.997338" ry="1.00252" fill="#F0F0F1"/>
<ellipse cx="299.201" cy="19.0025" rx="0.997338" ry="1.00252" fill="#F0F0F1"/>
<ellipse cx="299.201" cy="37.0025" rx="0.997338" ry="1.00252" fill="#F0F0F1"/>
<ellipse cx="299.201" cy="55.0025" rx="0.997338" ry="1.00252" fill="#F0F0F1"/>
<ellipse cx="299.201" cy="73.0013" rx="0.997338" ry="1.00252" fill="#F0F0F1"/>
<ellipse cx="299.201" cy="91.0011" rx="0.997338" ry="1.00252" fill="#F0F0F1"/>
<ellipse cx="299.201" cy="109.001" rx="0.997338" ry="1.00252" fill="#F0F0F1"/>
<ellipse cx="299.201" cy="127" rx="0.997338" ry="1.00252" fill="#F0F0F1"/>
<ellipse cx="299.201" cy="145" rx="0.997338" ry="1.00252" fill="#F0F0F1"/>
<ellipse cx="299.201" cy="163" rx="0.997338" ry="1.00252" fill="#F0F0F1"/>
<ellipse cx="299.201" cy="181" rx="0.997338" ry="1.00252" fill="#F0F0F1"/>
<ellipse cx="299.201" cy="198.999" rx="0.997338" ry="1.00252" fill="#F0F0F1"/>
<ellipse cx="317.154" cy="1.00252" rx="0.997338" ry="1.00252" fill="#F0F0F1"/>
<ellipse cx="317.154" cy="19.0025" rx="0.997338" ry="1.00252" fill="#F0F0F1"/>
<ellipse cx="317.154" cy="37.0025" rx="0.997338" ry="1.00252" fill="#F0F0F1"/>
<ellipse cx="317.154" cy="55.0025" rx="0.997338" ry="1.00252" fill="#F0F0F1"/>
<ellipse cx="317.154" cy="73.0013" rx="0.997338" ry="1.00252" fill="#F0F0F1"/>
<ellipse cx="317.154" cy="91.0011" rx="0.997338" ry="1.00252" fill="#F0F0F1"/>
<ellipse cx="317.154" cy="109.001" rx="0.997338" ry="1.00252" fill="#F0F0F1"/>
<ellipse cx="317.154" cy="127" rx="0.997338" ry="1.00252" fill="#F0F0F1"/>
<ellipse cx="317.154" cy="145" rx="0.997338" ry="1.00252" fill="#F0F0F1"/>
<ellipse cx="317.154" cy="163" rx="0.997338" ry="1.00252" fill="#F0F0F1"/>
<ellipse cx="317.154" cy="181" rx="0.997338" ry="1.00252" fill="#F0F0F1"/>
<ellipse cx="317.154" cy="198.999" rx="0.997338" ry="1.00252" fill="#F0F0F1"/>
</svg>
