<svg width="32" height="32" viewBox="0 0 32 32" fill="none" xmlns="http://www.w3.org/2000/svg">
<path d="M24.0942 10.8851C23.5658 11.1125 23.0103 11.2708 22.4415 11.3562C22.7074 11.3106 23.0988 10.8319 23.2545 10.6382C23.4912 10.3459 23.6715 10.0122 23.7864 9.65414C23.7864 9.62755 23.813 9.58955 23.7864 9.57056C23.773 9.56324 23.758 9.55941 23.7428 9.55941C23.7275 9.55941 23.7125 9.56324 23.6991 9.57056C23.0814 9.90506 22.424 10.1604 21.7424 10.3304C21.7187 10.3377 21.6934 10.3383 21.6693 10.3323C21.6452 10.3263 21.6232 10.3138 21.6057 10.2962C21.5526 10.2331 21.4955 10.1734 21.4347 10.1177C21.1567 9.86859 20.8413 9.66475 20.5001 9.51357C20.0394 9.32458 19.5418 9.24274 19.0449 9.27421C18.5628 9.30466 18.092 9.43399 17.662 9.65414C17.2385 9.88625 16.8663 10.2016 16.5678 10.5812C16.2538 10.9719 16.0271 11.4253 15.9029 11.9109C15.8005 12.3729 15.7889 12.8503 15.8687 13.3167C15.8687 13.3964 15.8687 13.4078 15.8003 13.3964C13.0914 12.9975 10.8688 12.0363 9.05278 9.97328C8.973 9.8821 8.93121 9.8821 8.86662 9.97328C8.07636 11.1739 8.46009 13.0735 9.44791 14.0119C9.58089 14.1373 9.71766 14.2589 9.86203 14.3729C9.40913 14.3407 8.96728 14.218 8.56267 14.0119C8.48669 13.9625 8.4449 13.9891 8.4411 14.0803C8.43033 14.2067 8.43033 14.3338 8.4411 14.4603C8.52037 15.0661 8.75913 15.64 9.13295 16.1233C9.50677 16.6066 10.0022 16.9819 10.5687 17.2109C10.7068 17.2701 10.8507 17.3147 10.998 17.3439C10.5787 17.4265 10.1487 17.4393 9.72526 17.3819C9.63408 17.3629 9.59988 17.4123 9.63408 17.4997C10.1926 19.0194 11.4045 19.4829 12.2936 19.7413C12.4152 19.7603 12.5367 19.7603 12.6735 19.7907C12.6735 19.7907 12.6735 19.7907 12.6507 19.8135C12.3886 20.2922 11.3286 20.6151 10.8423 20.7823C9.95461 21.1011 9.00822 21.223 8.06877 21.1394C7.92059 21.1166 7.8864 21.1204 7.84841 21.1394C7.81041 21.1584 7.84841 21.2002 7.8902 21.2382C8.08016 21.3636 8.27013 21.4738 8.46769 21.5801C9.05584 21.9009 9.67763 22.1558 10.3217 22.34C13.6575 23.2594 17.4112 22.5831 19.915 20.0946C21.883 18.1418 22.5745 15.4481 22.5745 12.7506C22.5745 12.648 22.6998 12.5872 22.772 12.534C23.2699 12.1461 23.7089 11.6879 24.0752 11.1739C24.1386 11.0972 24.1712 10.9997 24.1664 10.9003C24.1664 10.8433 24.1664 10.8547 24.0942 10.8851Z" fill="#33CCFF"/>
</svg>
